<svg width="1683" height="1069" viewBox="0 0 1683 1069" fill="none" xmlns="http://www.w3.org/2000/svg">
  <defs>
    <linearGradient id="g" x1="0%" x2="100%" y1="0%" y2="100%">
      <stop offset="0%" stop-color="#007CF0" stop-opacity="1"/>
      <stop offset="100%" stop-color="#00DFD8" stop-opacity="1"/>
    </linearGradient>
    <filter id="f" x="0" y="0">
      <feGaussianBlur in="SourceGraphic" stdDeviation="400"/>
    </filter>
  </defs>
  <path fill-rule="evenodd" clip-rule="evenodd"
        d="M230.088 460.82C357.161 460.82 460.175 357.807 460.175 230.733C460.175 103.659 357.161 0.645142 230.088 0.645142C103.014 0.645142 0 103.659 0 230.733C0 357.807 103.014 460.82 230.088 460.82ZM718.679 885.582C667.145 993.665 556.871 1068.35 429.152 1068.35C252.105 1068.35 108.581 924.83 108.581 747.783C108.581 570.737 252.105 427.212 429.152 427.212C498.835 427.212 563.326 449.446 615.917 487.206C660.53 439.17 724.238 409.115 794.965 409.115C821.523 409.115 847.092 413.353 871.031 421.189C887.698 301.864 989.659 210.051 1112.95 210.051C1237.41 210.051 1340.13 303.604 1355.32 424.573C1389.32 400.205 1431.06 385.848 1476.18 385.848C1590.4 385.848 1683 477.866 1683 591.376C1683 704.885 1590.4 796.903 1476.18 796.903C1430.98 796.903 1389.16 782.492 1355.13 758.04C1356.53 768.64 1357.26 779.456 1357.26 790.44C1357.26 925.367 1247.88 1034.75 1112.95 1034.75C1009.76 1034.75 921.515 970.771 885.709 880.32C857.654 891.55 827.031 897.728 794.965 897.728C768.325 897.728 742.681 893.464 718.679 885.582Z"
        fill="url(#g)" filter="url(#f)"/>
</svg>
